<mxfile>
    <diagram id="jyWivoFotawjM3F5wBjq" name="Auktioner">
        <mxGraphModel dx="242" dy="1588" grid="1" gridSize="10" guides="1" tooltips="1" connect="1" arrows="1" fold="1" page="1" pageScale="1" pageWidth="850" pageHeight="1100" math="0" shadow="0">
            <root>
                <mxCell id="0"/>
                <mxCell id="1" parent="0"/>
                <mxCell id="2" value="" style="strokeWidth=1;shadow=0;dashed=0;align=center;html=1;shape=mxgraph.mockup.containers.browserWindow;rSize=0;strokeColor=#666666;strokeColor2=#008cff;strokeColor3=#c4c4c4;mainText=,;recursiveResize=0;" parent="1" vertex="1">
                    <mxGeometry y="-1100" width="850" height="1560" as="geometry"/>
                </mxCell>
                <mxCell id="3" value="Page 1" style="strokeWidth=1;shadow=0;dashed=0;align=center;html=1;shape=mxgraph.mockup.containers.anchor;fontSize=17;fontColor=#666666;align=left;" parent="2" vertex="1">
                    <mxGeometry x="60" y="12" width="110" height="26" as="geometry"/>
                </mxCell>
                <mxCell id="4" value="https://www.draw.io" style="strokeWidth=1;shadow=0;dashed=0;align=center;html=1;shape=mxgraph.mockup.containers.anchor;rSize=0;fontSize=17;fontColor=#666666;align=left;" parent="2" vertex="1">
                    <mxGeometry x="130" y="60" width="250" height="26" as="geometry"/>
                </mxCell>
                <mxCell id="5" value="" style="shape=mxgraph.mockup.containers.marginRect;rectMarginTop=10;strokeColor=#666666;strokeWidth=1;dashed=0;rounded=1;arcSize=5;recursiveResize=0;" parent="2" vertex="1">
                    <mxGeometry x="220" y="730" width="410" height="200" as="geometry"/>
                </mxCell>
                <mxCell id="6" value="Auktion 1" style="shape=rect;strokeColor=none;fillColor=#008cff;strokeWidth=1;dashed=0;rounded=1;arcSize=20;fontColor=#ffffff;fontSize=17;spacing=2;spacingTop=-2;align=left;autosize=1;spacingLeft=4;resizeWidth=0;resizeHeight=0;perimeter=none;" parent="5" vertex="1">
                    <mxGeometry x="5" width="90" height="30" as="geometry"/>
                </mxCell>
                <mxCell id="7" value="Titel" style="strokeWidth=1;shadow=0;dashed=0;align=center;html=1;shape=mxgraph.mockup.forms.anchor;align=right;spacingRight=2;fontColor=#666666;" parent="2" vertex="1">
                    <mxGeometry x="225" y="120" width="50" height="18" as="geometry"/>
                </mxCell>
                <mxCell id="8" value="Samsung s7" style="strokeWidth=1;shadow=0;dashed=0;align=center;html=1;shape=mxgraph.mockup.forms.rrect;fillColor=#ffffff;rSize=0;fontColor=#666666;align=left;spacingLeft=3;strokeColor=#999999;" parent="2" vertex="1">
                    <mxGeometry x="275" y="120" width="350" height="18" as="geometry"/>
                </mxCell>
                <mxCell id="9" value="Startdatum" style="strokeWidth=1;shadow=0;dashed=0;align=center;html=1;shape=mxgraph.mockup.forms.anchor;align=right;spacingRight=2;fontColor=#666666;" parent="2" vertex="1">
                    <mxGeometry x="225" y="155" width="50" height="18" as="geometry"/>
                </mxCell>
                <mxCell id="10" value="Greeting" style="strokeWidth=1;shadow=0;dashed=0;align=center;html=1;shape=mxgraph.mockup.forms.rrect;fillColor=#ffffff;rSize=0;fontColor=#666666;align=left;spacingLeft=3;strokeColor=#999999;" parent="2" vertex="1">
                    <mxGeometry x="275" y="155" width="350" height="18" as="geometry"/>
                </mxCell>
                <mxCell id="11" value="Slutdatum" style="strokeWidth=1;shadow=0;dashed=0;align=center;html=1;shape=mxgraph.mockup.forms.anchor;align=right;spacingRight=2;fontColor=#666666;" parent="2" vertex="1">
                    <mxGeometry x="225" y="190" width="50" height="18" as="geometry"/>
                </mxCell>
                <mxCell id="12" value="fred@jgraph.com" style="strokeWidth=1;shadow=0;dashed=0;align=center;html=1;shape=mxgraph.mockup.forms.rrect;fillColor=#ffffff;rSize=0;fontColor=#666666;align=left;spacingLeft=3;strokeColor=#999999;" parent="2" vertex="1">
                    <mxGeometry x="275" y="190" width="350" height="18" as="geometry"/>
                </mxCell>
                <mxCell id="13" value="Utropspris" style="strokeWidth=1;shadow=0;dashed=0;align=center;html=1;shape=mxgraph.mockup.forms.anchor;align=right;spacingRight=2;fontColor=#666666;" parent="2" vertex="1">
                    <mxGeometry x="225" y="225" width="50" height="18" as="geometry"/>
                </mxCell>
                <mxCell id="14" value="" style="strokeWidth=1;shadow=0;dashed=0;align=center;html=1;shape=mxgraph.mockup.forms.rrect;fillColor=#ffffff;rSize=0;fontColor=#666666;align=left;spacingLeft=3;strokeColor=#999999;" parent="2" vertex="1">
                    <mxGeometry x="275" y="225" width="350" height="18" as="geometry"/>
                </mxCell>
                <mxCell id="15" value="Skapad av" style="strokeWidth=1;shadow=0;dashed=0;align=center;html=1;shape=mxgraph.mockup.forms.anchor;align=right;spacingRight=2;fontColor=#666666;" parent="2" vertex="1">
                    <mxGeometry x="225" y="260" width="50" height="18" as="geometry"/>
                </mxCell>
                <mxCell id="16" value="" style="strokeWidth=1;shadow=0;dashed=0;align=center;html=1;shape=mxgraph.mockup.forms.rrect;fillColor=#ffffff;rSize=0;fontColor=#666666;align=left;spacingLeft=3;strokeColor=#999999;" parent="2" vertex="1">
                    <mxGeometry x="275" y="260" width="350" height="18" as="geometry"/>
                </mxCell>
                <mxCell id="17" value="Lorem ipsum dolor sit amet, consectetur adipisicing elit, sed do eiusmod tempor incididunt ut labore et dolore magna aliqua. Ut enim ad minim veniam, quis nostrud exercitation ullamco laboris nisi ut aliquip ex ea commodo consequat. Duis aute irure dolor in reprehenderit in voluptate velit esse cillum dolore eu fugiat nulla pariatur. Excepteur sint occaecat cupidatat non proident, sunt in culpa qui officia deserunt mollit anim id est laborum." style="strokeWidth=1;shadow=0;dashed=0;align=center;html=1;shape=mxgraph.mockup.forms.rrect;fillColor=#ffffff;rSize=0;fontColor=#666666;align=left;spacingLeft=3;strokeColor=#999999;verticalAlign=top;whiteSpace=wrap;" parent="2" vertex="1">
                    <mxGeometry x="205" y="468" width="400" height="125" as="geometry"/>
                </mxCell>
                <mxCell id="18" value="Beskrivning" style="strokeWidth=1;shadow=0;dashed=0;align=center;html=1;shape=mxgraph.mockup.forms.anchor;align=right;spacingRight=2;fontColor=#666666;" parent="2" vertex="1">
                    <mxGeometry x="220" y="440" width="50" height="18" as="geometry"/>
                </mxCell>
                <mxCell id="19" value="" style="shape=mxgraph.mockup.containers.marginRect;rectMarginTop=10;strokeColor=#666666;strokeWidth=1;dashed=0;rounded=1;arcSize=5;recursiveResize=0;" parent="2" vertex="1">
                    <mxGeometry x="220" y="880" width="410" height="200" as="geometry"/>
                </mxCell>
                <mxCell id="20" value="Auktion 2" style="shape=rect;strokeColor=none;fillColor=#008cff;strokeWidth=1;dashed=0;rounded=1;arcSize=20;fontColor=#ffffff;fontSize=17;spacing=2;spacingTop=-2;align=left;autosize=1;spacingLeft=4;resizeWidth=0;resizeHeight=0;perimeter=none;" parent="19" vertex="1">
                    <mxGeometry x="5" width="90" height="30" as="geometry"/>
                </mxCell>
                <mxCell id="21" value="" style="shape=mxgraph.mockup.containers.marginRect;rectMarginTop=10;strokeColor=#666666;strokeWidth=1;dashed=0;rounded=1;arcSize=5;recursiveResize=0;" parent="2" vertex="1">
                    <mxGeometry x="215" y="1110" width="410" height="200" as="geometry"/>
                </mxCell>
                <mxCell id="22" value="Auktion 3" style="shape=rect;strokeColor=none;fillColor=#008cff;strokeWidth=1;dashed=0;rounded=1;arcSize=20;fontColor=#ffffff;fontSize=17;spacing=2;spacingTop=-2;align=left;autosize=1;spacingLeft=4;resizeWidth=0;resizeHeight=0;perimeter=none;" parent="21" vertex="1">
                    <mxGeometry x="5" width="90" height="30" as="geometry"/>
                </mxCell>
                <mxCell id="23" value="" style="strokeWidth=1;shadow=0;dashed=0;align=center;html=1;shape=mxgraph.mockup.containers.browserWindow;rSize=0;strokeColor=#666666;strokeColor2=#008cff;strokeColor3=#c4c4c4;mainText=,;recursiveResize=0;" parent="2" vertex="1">
                    <mxGeometry width="850" height="1560" as="geometry"/>
                </mxCell>
                <mxCell id="24" value="Page 1" style="strokeWidth=1;shadow=0;dashed=0;align=center;html=1;shape=mxgraph.mockup.containers.anchor;fontSize=17;fontColor=#666666;align=left;" parent="23" vertex="1">
                    <mxGeometry x="60" y="12" width="110" height="26" as="geometry"/>
                </mxCell>
                <mxCell id="25" value="https://www.draw.io" style="strokeWidth=1;shadow=0;dashed=0;align=center;html=1;shape=mxgraph.mockup.containers.anchor;rSize=0;fontSize=17;fontColor=#666666;align=left;" parent="23" vertex="1">
                    <mxGeometry x="130" y="60" width="250" height="26" as="geometry"/>
                </mxCell>
                <mxCell id="26" value="" style="shape=mxgraph.mockup.containers.marginRect;rectMarginTop=10;strokeColor=#666666;strokeWidth=1;dashed=0;rounded=1;arcSize=5;recursiveResize=0;" parent="23" vertex="1">
                    <mxGeometry x="220" y="780" width="410" height="200" as="geometry"/>
                </mxCell>
                <mxCell id="27" value="Auktion 1" style="shape=rect;strokeColor=none;fillColor=#008cff;strokeWidth=1;dashed=0;rounded=1;arcSize=20;fontColor=#ffffff;fontSize=17;spacing=2;spacingTop=-2;align=left;autosize=1;spacingLeft=4;resizeWidth=0;resizeHeight=0;perimeter=none;" parent="26" vertex="1">
                    <mxGeometry x="5" width="90" height="30" as="geometry"/>
                </mxCell>
                <mxCell id="28" value="Titel" style="strokeWidth=1;shadow=0;dashed=0;align=center;html=1;shape=mxgraph.mockup.forms.anchor;align=right;spacingRight=2;fontColor=#666666;" parent="23" vertex="1">
                    <mxGeometry x="200" y="280" width="50" height="18" as="geometry"/>
                </mxCell>
                <mxCell id="29" value="Samsung s7" style="strokeWidth=1;shadow=0;dashed=0;align=center;html=1;shape=mxgraph.mockup.forms.rrect;fillColor=#ffffff;rSize=0;fontColor=#666666;align=left;spacingLeft=3;strokeColor=#999999;" parent="23" vertex="1">
                    <mxGeometry x="275" y="280" width="350" height="18" as="geometry"/>
                </mxCell>
                <mxCell id="30" value="Startdatum" style="strokeWidth=1;shadow=0;dashed=0;align=center;html=1;shape=mxgraph.mockup.forms.anchor;align=right;spacingRight=2;fontColor=#666666;" parent="23" vertex="1">
                    <mxGeometry x="215" y="310" width="50" height="18" as="geometry"/>
                </mxCell>
                <mxCell id="31" value="" style="strokeWidth=1;shadow=0;dashed=0;align=center;html=1;shape=mxgraph.mockup.forms.rrect;fillColor=#ffffff;rSize=0;fontColor=#666666;align=left;spacingLeft=3;strokeColor=#999999;" parent="23" vertex="1">
                    <mxGeometry x="275" y="310" width="350" height="18" as="geometry"/>
                </mxCell>
                <mxCell id="32" value="Slutdatum" style="strokeWidth=1;shadow=0;dashed=0;align=center;html=1;shape=mxgraph.mockup.forms.anchor;align=right;spacingRight=2;fontColor=#666666;" parent="23" vertex="1">
                    <mxGeometry x="210" y="350" width="50" height="18" as="geometry"/>
                </mxCell>
                <mxCell id="33" value="" style="strokeWidth=1;shadow=0;dashed=0;align=center;html=1;shape=mxgraph.mockup.forms.rrect;fillColor=#ffffff;rSize=0;fontColor=#666666;align=left;spacingLeft=3;strokeColor=#999999;" parent="23" vertex="1">
                    <mxGeometry x="275" y="350" width="350" height="18" as="geometry"/>
                </mxCell>
                <mxCell id="34" value="Utropspris" style="strokeWidth=1;shadow=0;dashed=0;align=center;html=1;shape=mxgraph.mockup.forms.anchor;align=right;spacingRight=2;fontColor=#666666;" parent="23" vertex="1">
                    <mxGeometry x="210" y="380" width="50" height="18" as="geometry"/>
                </mxCell>
                <mxCell id="35" value="" style="strokeWidth=1;shadow=0;dashed=0;align=center;html=1;shape=mxgraph.mockup.forms.rrect;fillColor=#ffffff;rSize=0;fontColor=#666666;align=left;spacingLeft=3;strokeColor=#999999;" parent="23" vertex="1">
                    <mxGeometry x="275" y="380" width="350" height="18" as="geometry"/>
                </mxCell>
                <mxCell id="36" value="Skapad av" style="strokeWidth=1;shadow=0;dashed=0;align=center;html=1;shape=mxgraph.mockup.forms.anchor;align=right;spacingRight=2;fontColor=#666666;" parent="23" vertex="1">
                    <mxGeometry x="215" y="410" width="50" height="18" as="geometry"/>
                </mxCell>
                <mxCell id="37" value="" style="strokeWidth=1;shadow=0;dashed=0;align=center;html=1;shape=mxgraph.mockup.forms.rrect;fillColor=#ffffff;rSize=0;fontColor=#666666;align=left;spacingLeft=3;strokeColor=#999999;" parent="23" vertex="1">
                    <mxGeometry x="275" y="410" width="350" height="18" as="geometry"/>
                </mxCell>
                <mxCell id="38" value="Lorem ipsum dolor sit amet, consectetur adipisicing elit, sed do eiusmod tempor incididunt ut labore et dolore magna aliqua. Ut enim ad minim veniam, quis nostrud exercitation ullamco laboris nisi ut aliquip ex ea commodo consequat. Duis aute irure dolor in reprehenderit in voluptate velit esse cillum dolore eu fugiat nulla pariatur. Excepteur sint occaecat cupidatat non proident, sunt in culpa qui officia deserunt mollit anim id est laborum." style="strokeWidth=1;shadow=0;dashed=0;align=center;html=1;shape=mxgraph.mockup.forms.rrect;fillColor=#ffffff;rSize=0;fontColor=#666666;align=left;spacingLeft=3;strokeColor=#999999;verticalAlign=top;whiteSpace=wrap;" parent="23" vertex="1">
                    <mxGeometry x="205" y="468" width="425" height="125" as="geometry"/>
                </mxCell>
                <mxCell id="39" value="Beskrivning" style="strokeWidth=1;shadow=0;dashed=0;align=center;html=1;shape=mxgraph.mockup.forms.anchor;align=right;spacingRight=2;fontColor=#666666;" parent="23" vertex="1">
                    <mxGeometry x="220" y="440" width="50" height="18" as="geometry"/>
                </mxCell>
                <mxCell id="40" value="" style="shape=mxgraph.mockup.containers.marginRect;rectMarginTop=10;strokeColor=#666666;strokeWidth=1;dashed=0;rounded=1;arcSize=5;recursiveResize=0;" parent="23" vertex="1">
                    <mxGeometry x="225" y="1010" width="410" height="200" as="geometry"/>
                </mxCell>
                <mxCell id="41" value="Auktion 2" style="shape=rect;strokeColor=none;fillColor=#008cff;strokeWidth=1;dashed=0;rounded=1;arcSize=20;fontColor=#ffffff;fontSize=17;spacing=2;spacingTop=-2;align=left;autosize=1;spacingLeft=4;resizeWidth=0;resizeHeight=0;perimeter=none;" parent="40" vertex="1">
                    <mxGeometry x="5" width="90" height="30" as="geometry"/>
                </mxCell>
                <mxCell id="42" value="" style="shape=mxgraph.mockup.containers.marginRect;rectMarginTop=10;strokeColor=#666666;strokeWidth=1;dashed=0;rounded=1;arcSize=5;recursiveResize=0;" parent="23" vertex="1">
                    <mxGeometry x="225" y="1250" width="410" height="200" as="geometry"/>
                </mxCell>
                <mxCell id="43" value="Auktion 3" style="shape=rect;strokeColor=none;fillColor=#008cff;strokeWidth=1;dashed=0;rounded=1;arcSize=20;fontColor=#ffffff;fontSize=17;spacing=2;spacingTop=-2;align=left;autosize=1;spacingLeft=4;resizeWidth=0;resizeHeight=0;perimeter=none;" parent="42" vertex="1">
                    <mxGeometry x="5" width="90" height="30" as="geometry"/>
                </mxCell>
                <mxCell id="44" value="Search" style="strokeWidth=1;shadow=0;dashed=0;align=center;html=1;shape=mxgraph.mockup.forms.searchBox;strokeColor=#999999;mainText=;strokeColor2=#008cff;fontColor=#666666;fontSize=17;align=left;spacingLeft=3;" parent="23" vertex="1">
                    <mxGeometry x="350" y="149" width="150" height="30" as="geometry"/>
                </mxCell>
                <mxCell id="45" value="" style="strokeWidth=1;shadow=0;dashed=0;align=center;html=1;shape=mxgraph.mockup.forms.anchor;align=right;spacingRight=2;fontColor=#666666;" parent="23" vertex="1">
                    <mxGeometry x="380" y="310" width="50" height="18" as="geometry"/>
                </mxCell>
                <mxCell id="46" value="Lägg till auktion" style="strokeWidth=1;shadow=0;dashed=0;align=center;html=1;shape=mxgraph.mockup.forms.rrect;rSize=5;strokeColor=none;fontColor=#ffffff;fillColor=#66bbff;fontSize=16;fontStyle=1;" parent="23" vertex="1">
                    <mxGeometry x="360" y="620" width="130" height="30" as="geometry"/>
                </mxCell>
                <mxCell id="47" value="" style="strokeColor=#999999;verticalLabelPosition=bottom;shadow=0;dashed=0;verticalAlign=top;strokeWidth=2;html=1;shape=mxgraph.mockup.misc.editIcon;" parent="23" vertex="1">
                    <mxGeometry x="650" y="930" width="50" height="50" as="geometry"/>
                </mxCell>
                <mxCell id="48" value="" style="strokeColor=#999999;verticalLabelPosition=bottom;shadow=0;dashed=0;verticalAlign=top;strokeWidth=2;html=1;shape=mxgraph.mockup.misc.trashcanIcon;" parent="23" vertex="1">
                    <mxGeometry x="650" y="820" width="50" height="50" as="geometry"/>
                </mxCell>
                <mxCell id="49" value="" style="strokeColor=#999999;verticalLabelPosition=bottom;shadow=0;dashed=0;verticalAlign=top;strokeWidth=2;html=1;shape=mxgraph.mockup.misc.editIcon;" parent="23" vertex="1">
                    <mxGeometry x="650" y="1150" width="50" height="50" as="geometry"/>
                </mxCell>
                <mxCell id="50" value="" style="strokeColor=#999999;verticalLabelPosition=bottom;shadow=0;dashed=0;verticalAlign=top;strokeWidth=2;html=1;shape=mxgraph.mockup.misc.trashcanIcon;" parent="23" vertex="1">
                    <mxGeometry x="650" y="1040" width="50" height="50" as="geometry"/>
                </mxCell>
                <mxCell id="51" value="" style="strokeColor=#999999;verticalLabelPosition=bottom;shadow=0;dashed=0;verticalAlign=top;strokeWidth=2;html=1;shape=mxgraph.mockup.misc.editIcon;" parent="23" vertex="1">
                    <mxGeometry x="650" y="1390" width="50" height="50" as="geometry"/>
                </mxCell>
                <mxCell id="52" value="" style="strokeColor=#999999;verticalLabelPosition=bottom;shadow=0;dashed=0;verticalAlign=top;strokeWidth=2;html=1;shape=mxgraph.mockup.misc.trashcanIcon;" parent="23" vertex="1">
                    <mxGeometry x="650" y="1280" width="50" height="50" as="geometry"/>
                </mxCell>
            </root>
        </mxGraphModel>
    </diagram>
    <diagram name="Auktion" id="7xlfVlV7b8FzsgKHMDr6">
        <mxGraphModel dx="242" dy="488" grid="1" gridSize="10" guides="1" tooltips="1" connect="1" arrows="1" fold="1" page="1" pageScale="1" pageWidth="850" pageHeight="1100" math="0" shadow="0">
            <root>
                <mxCell id="tn4pPZs90tScDQ_xrxVo-0"/>
                <mxCell id="tn4pPZs90tScDQ_xrxVo-1" parent="tn4pPZs90tScDQ_xrxVo-0"/>
                <mxCell id="ttwwwqeSFgUDAaz6Lx69-11" value="" style="strokeWidth=1;shadow=0;dashed=0;align=center;html=1;shape=mxgraph.mockup.containers.browserWindow;rSize=0;strokeColor=#666666;strokeColor2=#008cff;strokeColor3=#c4c4c4;mainText=,;recursiveResize=0;" parent="tn4pPZs90tScDQ_xrxVo-1" vertex="1">
                    <mxGeometry width="850" height="1100" as="geometry"/>
                </mxCell>
                <mxCell id="ttwwwqeSFgUDAaz6Lx69-12" value="Page 1" style="strokeWidth=1;shadow=0;dashed=0;align=center;html=1;shape=mxgraph.mockup.containers.anchor;fontSize=17;fontColor=#666666;align=left;" parent="ttwwwqeSFgUDAaz6Lx69-11" vertex="1">
                    <mxGeometry x="60" y="12" width="110" height="26" as="geometry"/>
                </mxCell>
                <mxCell id="ttwwwqeSFgUDAaz6Lx69-13" value="https://www.draw.io" style="strokeWidth=1;shadow=0;dashed=0;align=center;html=1;shape=mxgraph.mockup.containers.anchor;rSize=0;fontSize=17;fontColor=#666666;align=left;" parent="ttwwwqeSFgUDAaz6Lx69-11" vertex="1">
                    <mxGeometry x="130" y="60" width="250" height="26" as="geometry"/>
                </mxCell>
                <mxCell id="ttwwwqeSFgUDAaz6Lx69-14" value="Bud" style="strokeWidth=1;shadow=0;dashed=0;align=center;html=1;shape=mxgraph.mockup.forms.anchor;align=right;spacingRight=2;fontColor=#666666;" parent="ttwwwqeSFgUDAaz6Lx69-11" vertex="1">
                    <mxGeometry x="205" y="170" width="50" height="18" as="geometry"/>
                </mxCell>
                <mxCell id="ttwwwqeSFgUDAaz6Lx69-15" value="" style="strokeWidth=1;shadow=0;dashed=0;align=center;html=1;shape=mxgraph.mockup.forms.rrect;fillColor=#ffffff;rSize=0;fontColor=#666666;align=left;spacingLeft=3;strokeColor=#999999;" parent="ttwwwqeSFgUDAaz6Lx69-11" vertex="1">
                    <mxGeometry x="255" y="170" width="350" height="18" as="geometry"/>
                </mxCell>
                <mxCell id="ttwwwqeSFgUDAaz6Lx69-16" value="Budgivare" style="strokeWidth=1;shadow=0;dashed=0;align=center;html=1;shape=mxgraph.mockup.forms.anchor;align=right;spacingRight=2;fontColor=#666666;" parent="ttwwwqeSFgUDAaz6Lx69-11" vertex="1">
                    <mxGeometry x="205" y="205" width="50" height="18" as="geometry"/>
                </mxCell>
                <mxCell id="ttwwwqeSFgUDAaz6Lx69-17" value="Jonathan" style="strokeWidth=1;shadow=0;dashed=0;align=center;html=1;shape=mxgraph.mockup.forms.rrect;fillColor=#ffffff;rSize=0;fontColor=#666666;align=left;spacingLeft=3;strokeColor=#999999;" parent="ttwwwqeSFgUDAaz6Lx69-11" vertex="1">
                    <mxGeometry x="255" y="205" width="350" height="18" as="geometry"/>
                </mxCell>
                <mxCell id="ttwwwqeSFgUDAaz6Lx69-25" value="" style="shape=mxgraph.mockup.containers.marginRect;rectMarginTop=10;strokeColor=#666666;strokeWidth=1;dashed=0;rounded=1;arcSize=5;recursiveResize=0;" parent="ttwwwqeSFgUDAaz6Lx69-11" vertex="1">
                    <mxGeometry x="350" y="340" width="150" height="200" as="geometry"/>
                </mxCell>
                <mxCell id="ttwwwqeSFgUDAaz6Lx69-26" value="Bud 1" style="shape=rect;strokeColor=none;fillColor=#008cff;strokeWidth=1;dashed=0;rounded=1;arcSize=20;fontColor=#ffffff;fontSize=17;spacing=2;spacingTop=-2;align=left;autosize=1;spacingLeft=4;resizeWidth=0;resizeHeight=0;perimeter=none;" parent="ttwwwqeSFgUDAaz6Lx69-25" vertex="1">
                    <mxGeometry x="5" width="70" height="30" as="geometry"/>
                </mxCell>
                <mxCell id="ttwwwqeSFgUDAaz6Lx69-27" value="" style="shape=mxgraph.mockup.containers.marginRect;rectMarginTop=10;strokeColor=#666666;strokeWidth=1;dashed=0;rounded=1;arcSize=5;recursiveResize=0;" parent="ttwwwqeSFgUDAaz6Lx69-11" vertex="1">
                    <mxGeometry x="350" y="590" width="150" height="200" as="geometry"/>
                </mxCell>
                <mxCell id="ttwwwqeSFgUDAaz6Lx69-28" value="Bud 2" style="shape=rect;strokeColor=none;fillColor=#008cff;strokeWidth=1;dashed=0;rounded=1;arcSize=20;fontColor=#ffffff;fontSize=17;spacing=2;spacingTop=-2;align=left;autosize=1;spacingLeft=4;resizeWidth=0;resizeHeight=0;perimeter=none;" parent="ttwwwqeSFgUDAaz6Lx69-27" vertex="1">
                    <mxGeometry x="5" width="70" height="30" as="geometry"/>
                </mxCell>
                <mxCell id="ttwwwqeSFgUDAaz6Lx69-29" value="" style="shape=mxgraph.mockup.containers.marginRect;rectMarginTop=10;strokeColor=#666666;strokeWidth=1;dashed=0;rounded=1;arcSize=5;recursiveResize=0;" parent="ttwwwqeSFgUDAaz6Lx69-11" vertex="1">
                    <mxGeometry x="350" y="840" width="150" height="200" as="geometry"/>
                </mxCell>
                <mxCell id="ttwwwqeSFgUDAaz6Lx69-30" value="Bud 3" style="shape=rect;strokeColor=none;fillColor=#008cff;strokeWidth=1;dashed=0;rounded=1;arcSize=20;fontColor=#ffffff;fontSize=17;spacing=2;spacingTop=-2;align=left;autosize=1;spacingLeft=4;resizeWidth=0;resizeHeight=0;perimeter=none;" parent="ttwwwqeSFgUDAaz6Lx69-29" vertex="1">
                    <mxGeometry x="5" width="70" height="30" as="geometry"/>
                </mxCell>
                <mxCell id="ttwwwqeSFgUDAaz6Lx69-38" value="Placera bud" style="strokeWidth=1;shadow=0;dashed=0;align=center;html=1;shape=mxgraph.mockup.forms.rrect;rSize=5;strokeColor=none;fontColor=#ffffff;fillColor=#66bbff;fontSize=16;fontStyle=1;" parent="ttwwwqeSFgUDAaz6Lx69-11" vertex="1">
                    <mxGeometry y="1" width="100" height="30" relative="1" as="geometry">
                        <mxPoint x="370" y="-840" as="offset"/>
                    </mxGeometry>
                </mxCell>
                <mxCell id="RDdw7jOUkiw15jpe_n7f-0" value="" style="strokeColor=#999999;verticalLabelPosition=bottom;shadow=0;dashed=0;verticalAlign=top;strokeWidth=2;html=1;shape=mxgraph.mockup.misc.trashcanIcon;" parent="ttwwwqeSFgUDAaz6Lx69-11" vertex="1">
                    <mxGeometry x="520" y="470" width="50" height="50" as="geometry"/>
                </mxCell>
                <mxCell id="RDdw7jOUkiw15jpe_n7f-1" value="" style="strokeColor=#999999;verticalLabelPosition=bottom;shadow=0;dashed=0;verticalAlign=top;strokeWidth=2;html=1;shape=mxgraph.mockup.misc.trashcanIcon;" parent="ttwwwqeSFgUDAaz6Lx69-11" vertex="1">
                    <mxGeometry x="520" y="730" width="50" height="50" as="geometry"/>
                </mxCell>
                <mxCell id="RDdw7jOUkiw15jpe_n7f-2" value="" style="strokeColor=#999999;verticalLabelPosition=bottom;shadow=0;dashed=0;verticalAlign=top;strokeWidth=2;html=1;shape=mxgraph.mockup.misc.trashcanIcon;" parent="ttwwwqeSFgUDAaz6Lx69-11" vertex="1">
                    <mxGeometry x="520" y="980" width="50" height="50" as="geometry"/>
                </mxCell>
            </root>
        </mxGraphModel>
    </diagram>
</mxfile>